<mxfile host="app.diagrams.net" modified="2023-04-15T14:28:29.800Z" agent="Mozilla/5.0 (Windows NT 10.0; Win64; x64) AppleWebKit/537.36 (KHTML, like Gecko) Chrome/111.0.0.0 Safari/537.36 OPR/97.0.0.0" version="21.1.8" etag="jDfKoq_DPRTbTeLPVs4H" type="github">
  <diagram name="Page-1" id="PBIAicuy8AlZsrrel6mw">
    <mxGraphModel>
      <root>
        <mxCell id="0" />
        <mxCell id="1" parent="0" />
      </root>
    </mxGraphModel>
  </diagram>
</mxfile>
